<svg width="86" height="57" viewBox="0 0 86 57" fill="none" xmlns="http://www.w3.org/2000/svg"><g filter="url(#filter0_d_1_1741)"><path d="M63.222 24.333c0 4.529-.574 8.2-19.97 8.2-19.396 0-33.743-3.671-39.252-8.2 5.509-4.528 19.856-8.2 39.252-8.2s19.97 3.672 19.97 8.2z" fill="#6667AB"/><path d="M52.022 24.333c0 2.762-.339 5-11.802 5s-19.942-2.238-23.198-5c3.256-2.761 11.735-5 23.198-5 11.463 0 11.802 2.239 11.802 5z" fill="#FFE86D" filter="url(#filter1_d_1_1741)"/><path d="M82 23.878C82 32.18 67.424 38.91 53.94 39.91c-13.486 0-11.979 2-11.979-16.034 0-18.944-1.507-16.033 11.978-16.033C67.424 8.844 82 15.574 82 23.878z" fill="#D9D9D9"/><path d="M82 23.882c0 7.294-15.073 13.207-27.332 13.207s-10.889 0-10.889-13.207c0-14.007-1.37-13.207 10.889-13.207S82 16.588 82 23.882z" fill="url(#paint0_linear_1_1741)"/><path d="M70.244 24.333c0 4.476-5.365 7.294-9.939 8.104-4.574.81-8.283-.628-8.283-8.104 0-7.475 3.709-8.914 8.283-8.103 4.574.81 9.94 3.628 9.94 8.103z" fill="url(#paint1_linear_1_1741)"/><path d="M47.378 39.608C46.467 49 31.888 49 31.888 49V24.5s29.156-12.25 29.156 0-12.755 5.717-13.666 15.108z" fill="#F0EEE9"/><path d="M47.378 9.392C46.467 0 31.888 0 31.888 0v24.5s29.156 12.25 29.156 0S48.29 18.783 47.379 9.392z" fill="#F0EEE9"/><path d="M31.889 49V24.5s29.155-9.8 29.155 0-8.288 3.675-14.577 12.25C43.177 45.325 31.889 49 31.889 49z" fill="url(#paint2_linear_1_1741)"/><path d="M31.889 0v24.5s29.155 9.8 29.155 0-8.288-3.675-14.577-12.25C43.177 3.675 31.889 0 31.889 0z" fill="url(#paint3_linear_1_1741)"/></g><defs><filter id="filter0_d_1_1741" x="0" y="0" width="86" height="57" filterUnits="userSpaceOnUse" color-interpolation-filters="sRGB"><feFlood flood-opacity="0" result="BackgroundImageFix"/><feColorMatrix in="SourceAlpha" values="0 0 0 0 0 0 0 0 0 0 0 0 0 0 0 0 0 0 127 0" result="hardAlpha"/><feOffset dy="4"/><feGaussianBlur stdDeviation="2"/><feComposite in2="hardAlpha" operator="out"/><feColorMatrix values="0 0 0 0 0.0862745 0 0 0 0 0.0784314 0 0 0 0 0.137255 0 0 0 0.7 0"/><feBlend in2="BackgroundImageFix" result="effect1_dropShadow_1_1741"/><feBlend in="SourceGraphic" in2="effect1_dropShadow_1_1741" result="shape"/></filter><filter id="filter1_d_1_1741" x="13.022" y="17.333" width="43" height="18" filterUnits="userSpaceOnUse" color-interpolation-filters="sRGB"><feFlood flood-opacity="0" result="BackgroundImageFix"/><feColorMatrix in="SourceAlpha" values="0 0 0 0 0 0 0 0 0 0 0 0 0 0 0 0 0 0 127 0" result="hardAlpha"/><feOffset dy="2"/><feGaussianBlur stdDeviation="2"/><feComposite in2="hardAlpha" operator="out"/><feColorMatrix values="0 0 0 0 0.0862745 0 0 0 0 0.0784314 0 0 0 0 0.137255 0 0 0 0.3 0"/><feBlend in2="BackgroundImageFix" result="effect1_dropShadow_1_1741"/><feBlend in="SourceGraphic" in2="effect1_dropShadow_1_1741" result="shape"/></filter><linearGradient id="paint0_linear_1_1741" x1="43.733" y1="24.333" x2="82" y2="24.333" gradientUnits="userSpaceOnUse"><stop stop-color="#C0BEBA"/><stop offset="1" stop-color="#F0EEE9"/></linearGradient><linearGradient id="paint1_linear_1_1741" x1="70.244" y1="24.333" x2="57.489" y2="24.333" gradientUnits="userSpaceOnUse"><stop stop-color="#4D4D80"/><stop offset="1" stop-color="#2E2E4D"/></linearGradient><linearGradient id="paint2_linear_1_1741" x1="31.889" y1="24.5" x2="61.044" y2="24.5" gradientUnits="userSpaceOnUse"><stop stop-color="#CAC9C7"/><stop offset="1" stop-color="#F0EEE9"/></linearGradient><linearGradient id="paint3_linear_1_1741" x1="31.889" y1="24.5" x2="61.044" y2="24.5" gradientUnits="userSpaceOnUse"><stop stop-color="#CAC9C7"/><stop offset="1" stop-color="#F0EEE9"/></linearGradient></defs></svg>