<svg width="48" height="48" viewBox="0 0 48 48" fill="none" xmlns="http://www.w3.org/2000/svg"><circle cx="24" cy="24" r="24" fill="#fff"/><mask id="a" style="mask-type:alpha" maskUnits="userSpaceOnUse" x="1" y="1" width="46" height="46"><path d="M24 46.5c12.426 0 22.5-10.074 22.5-22.5S36.426 1.5 24 1.5 1.5 11.574 1.5 24 11.574 46.5 24 46.5z" fill="#0E7181"/></mask><g mask="url(#a)"><path d="M24 47.063c12.737 0 23.063-10.326 23.063-23.063C47.063 11.263 36.736.937 24 .937 11.263.938.937 11.264.937 24 .938 36.737 11.264 47.063 24 47.063z" fill="#A4A4A4" stroke="#fff" stroke-width="1.5"/><path d="M53.25-.75h-21V46.5h21V-.75z" fill="#5A5A5A"/><path fill-rule="evenodd" clip-rule="evenodd" d="M32.25 19.5H-6.168v-38.221l38.418 38.22z" fill="#E1E1E1"/></g></svg>