<svg width="32" height="32" viewBox="0 0 32 32" fill="none" xmlns="http://www.w3.org/2000/svg">
<path d="M23.6765 22.3039C23.9057 22.1133 24.1298 21.9153 24.3424 21.7058C24.3911 21.6631 24.4399 21.6131 24.4866 21.5661C24.5509 21.5026 24.6141 21.4359 24.6785 21.3692C24.7428 21.3025 24.7823 21.2587 24.8362 21.2004C24.9233 21.1045 25.0105 21.0065 25.0935 20.9054C25.138 20.8544 25.1805 20.8012 25.2232 20.7512C25.2833 20.6815 25.3403 20.6105 25.3953 20.5429L25.5301 20.3699L25.7377 20.0853C25.8902 19.8655 26.0375 19.6403 26.1775 19.4101C26.1971 19.382 26.2158 19.3517 26.2335 19.3225C26.2511 19.2934 26.2864 19.2309 26.3123 19.1829C26.3157 19.1744 26.3207 19.1667 26.3268 19.16C26.5518 18.7693 26.7514 18.3645 26.9244 17.948L26.9441 17.9001C26.9762 17.8241 27.0074 17.7469 27.0374 17.6698C27.0675 17.5927 27.1059 17.4947 27.1411 17.4072C27.1765 17.3197 27.2023 17.2311 27.2324 17.1414C27.2936 16.9643 27.3517 16.784 27.4004 16.6027C27.4264 16.5131 27.4493 16.4214 27.4731 16.3287C27.5426 16.0557 27.6049 15.7753 27.6536 15.495C27.6681 15.4116 27.6837 15.3283 27.6961 15.2428C27.695 15.2283 27.6972 15.2136 27.7024 15.2C27.7138 15.1365 27.722 15.0698 27.7304 15.0052C27.7387 14.9406 27.7449 14.8906 27.7511 14.8301C27.7573 14.7697 27.7667 14.6978 27.7729 14.6311C27.7833 14.5373 27.7916 14.4435 27.7988 14.3498C27.8061 14.2559 27.8114 14.1934 27.8134 14.1143C27.8134 14.0538 27.8217 13.9923 27.8217 13.9298C27.8217 13.8672 27.8279 13.8193 27.8279 13.7609V13.466C27.8279 10.425 26.6253 7.50863 24.4848 5.35832C22.3443 3.20803 19.4411 2 16.4139 2C13.3868 2 10.4836 3.20803 8.34307 5.35832C6.20254 7.50863 5 10.425 5 13.466C5 13.6651 5 13.862 5.01556 14.0559C5.01556 14.1444 5.02594 14.232 5.03216 14.3195L5.04461 14.4737C5.05395 14.5779 5.06432 14.6821 5.07677 14.7864C5.07541 14.8137 5.07821 14.8412 5.08506 14.8676C5.10062 14.9854 5.11515 15.1031 5.13486 15.2209C5.17532 15.5054 5.22822 15.7868 5.2915 16.0649L5.53631 17.1258L5.57884 17.0737L6.222 16.2827C6.49898 15.943 6.79877 15.6117 7.11412 15.2949C7.89379 14.5034 8.77047 13.8146 9.72305 13.2451L10.0042 13.0846L10.0145 13.0784V12.9648C10.0859 12.0329 10.3581 11.1277 10.8121 10.3118C11.2662 9.49602 11.8913 8.78907 12.6442 8.23993C13.3972 7.69079 14.2599 7.31258 15.1727 7.13148C16.0855 6.95039 17.0265 6.97072 17.9307 7.19109C18.8349 7.41145 19.6806 7.8266 20.4093 8.40776C21.138 8.98892 21.7323 9.72222 22.1511 10.5569C22.5697 11.3916 22.8029 12.3077 22.8343 13.2419C22.8657 14.176 22.6947 15.1059 22.333 15.9671C22.2947 16.0629 22.25 16.1598 22.2034 16.2536C22.1567 16.3474 22.1142 16.4391 22.0623 16.5318C22.0136 16.6215 21.9585 16.7111 21.9077 16.7986C21.7471 17.0639 21.5678 17.3174 21.3714 17.5572C21.2739 17.679 21.1701 17.7956 21.0602 17.9063C20.9472 18.0199 20.8435 18.1263 20.7283 18.2294C20.6536 18.3013 20.5747 18.368 20.497 18.4326C20.4191 18.4972 20.3352 18.5607 20.2542 18.6223C20.1734 18.6837 20.0882 18.7462 20.0032 18.8015C19.8103 18.9327 19.6105 19.0534 19.4046 19.1631C19.2915 19.2236 19.1795 19.2787 19.0644 19.3319C19.0617 19.3309 19.0588 19.3309 19.056 19.3319C18.2284 19.7156 17.3276 19.9143 16.416 19.9144C15.369 19.9135 14.3518 20.2646 13.5265 20.9117C12.7012 21.559 12.1152 22.4651 11.8621 23.4856L11.7583 23.9233V23.9379L12.1909 24.1119C12.2946 24.1547 12.3984 24.1891 12.5021 24.2266C12.7635 24.3235 13.0322 24.411 13.3029 24.4882C13.4834 24.5392 13.6639 24.5861 13.8496 24.6288C14.1266 24.6955 14.4067 24.7487 14.6878 24.7893C14.7843 24.8038 14.8776 24.8174 14.9731 24.8299C15.0685 24.8424 15.165 24.8539 15.2604 24.8622C15.4482 24.881 15.6391 24.8966 15.831 24.9071H15.8797C16.0612 24.9154 16.2438 24.9196 16.4264 24.9196C16.609 24.9196 16.7926 24.9196 16.9741 24.9071H17.0229C17.2147 24.8966 17.4056 24.881 17.5934 24.8622C17.6889 24.8539 17.7842 24.8424 17.8808 24.8299C17.9773 24.8174 18.0695 24.8038 18.166 24.7893C18.4482 24.7487 18.7273 24.6944 19.0042 24.6288C19.1889 24.5861 19.3704 24.5392 19.5509 24.4882C19.664 24.4558 19.777 24.4214 19.887 24.3839C19.9969 24.3464 20.1089 24.312 20.219 24.2735C20.3683 24.2234 20.5157 24.1692 20.6599 24.1109C20.7304 24.0828 20.8008 24.0525 20.8673 24.0213C21.2931 23.8426 21.7068 23.6363 22.1058 23.4034L22.3424 23.2616L22.5769 23.1146C22.6443 23.072 22.7107 23.026 22.7843 22.9813C23.0198 22.8218 23.2521 22.652 23.4751 22.4749L23.6765 22.3039Z" fill="url(#paint0_radial_640_2208)"/>
<path fill-rule="evenodd" clip-rule="evenodd" d="M13.1961 19.0391C12.9742 19.1703 12.7598 19.3139 12.554 19.4694C11.5642 20.213 10.8089 21.2276 10.3787 22.3915C10.2967 22.6109 10.2274 22.835 10.1712 23.0626C10.0436 23.5737 9.97916 24.0987 9.97928 24.6257V26.7656C9.97928 27.4289 9.71699 28.0651 9.25008 28.5341C8.78318 29.0031 8.14994 29.2666 7.48965 29.2666C6.82935 29.2666 6.19611 29.0031 5.72921 28.5341C5.26231 28.0651 5.00001 27.4289 5.00001 26.7656V24.6257C4.99897 23.7506 5.09747 22.8784 5.29358 22.0257C5.53444 20.9803 5.92214 19.9748 6.44504 19.0391C6.49483 18.9474 6.54566 18.8578 6.59856 18.7681C7.08505 17.9495 7.67002 17.1943 8.34027 16.5193C8.72353 16.1367 9.13177 15.7802 9.56227 15.4522C9.76975 15.3011 9.97721 15.1532 10.1847 15.0166C10.8141 14.6022 11.4839 14.2529 12.1836 13.9745C14.9031 12.8939 17.93 12.8939 20.6495 13.9745L21.0821 14.1465L20.969 14.5998C20.7193 15.6174 20.1379 16.5218 19.3174 17.169C18.4968 17.8162 17.4842 18.1688 16.4409 18.171C15.3017 18.1655 14.1817 18.4652 13.1961 19.0391ZM26.6069 21.811L27.2926 20.97L27.5301 22.0288C27.7254 22.8809 27.8235 23.7524 27.8227 24.6268V26.7656C27.8227 27.4289 27.5604 28.0651 27.0935 28.5341C26.6266 29.0031 25.9933 29.2666 25.3331 29.2666C24.6727 29.2666 24.0395 29.0031 23.5726 28.5341C23.1058 28.0651 22.8435 27.4289 22.8435 26.7656V24.9925L23.1048 24.8373C24.0566 24.2703 24.9336 23.5851 25.7148 22.7979C26.0294 22.4851 26.3272 22.1556 26.6069 21.811Z" fill="url(#paint1_linear_640_2208)"/>
<defs>
<radialGradient id="paint0_radial_640_2208" cx="0" cy="0" r="1" gradientUnits="userSpaceOnUse" gradientTransform="translate(15.3732 20.079) rotate(-80.2476) scale(19.2462 19.1693)">
<stop stop-color="#4C81E8"/>
<stop offset="0.739583" stop-color="#4F87F5"/>
<stop offset="1" stop-color="#6096FF"/>
</radialGradient>
<linearGradient id="paint1_linear_640_2208" x1="16.8551" y1="12.6695" x2="12.7058" y2="29.2666" gradientUnits="userSpaceOnUse">
<stop stop-color="#5C5C5C"/>
<stop offset="0.296449" stop-color="#454545"/>
<stop offset="1" stop-color="#383838"/>
</linearGradient>
</defs>
</svg>
