<svg width="11" height="12" viewBox="0 0 11 12" fill="none" xmlns="http://www.w3.org/2000/svg"><path fill-rule="evenodd" clip-rule="evenodd" d="M9.092.273h-5.91c-.5 0-.908.409-.908.909v.455h5.454c.5 0 .91.409.91.909v6.363h.454c.5 0 .91-.409.91-.909V1.182c0-.5-.41-.91-.91-.91zM7.727 3.455c0-.5-.409-.91-.909-.91H.91c-.5 0-.909.41-.909.91v6.818c0 .5.41.909.91.909h5.908c.5 0 .91-.41.91-.91V3.456zm-4.09 1.591c0 .136-.092.227-.228.227H1.59c-.137 0-.228-.09-.228-.227v-.455c0-.136.091-.227.228-.227h1.818c.136 0 .227.091.227.227v.455zm1.817 3.635c0 .136-.09.227-.227.227H1.591c-.137 0-.228-.09-.228-.227v-.455c0-.136.091-.227.228-.227h3.636c.136 0 .227.091.227.227v.455zm.91-1.818c0 .137-.092.228-.228.228H1.591c-.137 0-.228-.091-.228-.228V6.41c0-.136.091-.227.228-.227h4.545c.136 0 .227.09.227.227v.454z" fill="#838290"/></svg>