<svg width="32" height="32" viewBox="0 0 32 32" fill="none" xmlns="http://www.w3.org/2000/svg">
<path d="M28 4V7.8611C28 12.3055 24.4301 15.9168 19.999 15.9886L19.8645 15.9897L15.9999 15.9899V19.8607C15.9999 24.4334 12.3697 27.9998 7.8975 27.9998H4V24.0241C4 24.0063 4.00006 23.9885 4.00017 23.9708V15.3801C4.00017 9.09503 9.09954 4 15.3899 4H28Z" fill="white"/>
<path fill-rule="evenodd" clip-rule="evenodd" d="M22.8481 4H27.9999V7.86078C27.9999 12.4334 24.3697 15.9999 19.8975 15.9999H19.763H16V12.0273C16 7.97592 18.9667 4.61678 22.8481 4Z" fill="#242265" fill-opacity="0.8"/>
<path d="M28 4V7.8611C28 12.3055 24.4301 15.9168 19.999 15.9886L19.8645 15.9897L15.9999 15.9899V19.8607C15.9999 24.4334 12.3697 27.9998 7.8975 27.9998H4V24.0241C4 24.0063 4.00006 23.9885 4.00017 23.9708V15.3801C4.00017 9.09503 9.09954 4 15.3899 4H28Z" fill="#616EE1" fill-opacity="0.8"/>
</svg>
