<svg width="48" height="48" viewBox="0 0 48 48" fill="none" xmlns="http://www.w3.org/2000/svg"><path fill-rule="evenodd" clip-rule="evenodd" d="M32.82 16.966c0-4.756-3.92-8.587-8.786-8.587s-8.786 3.897-8.786 8.587v2.18c2.906-.33 5.88-.463 8.786-.463 2.906 0 5.88.132 8.785.462v-2.18zm8.041 8.983l-.878 7.53c2.365 0 4.325-1.718 4.325-3.831 0-1.784-1.487-3.369-3.447-3.7zM3.692 29.648c0 2.113 1.96 3.83 4.325 3.83l-.878-7.53c-1.96.331-3.447 1.85-3.447 3.7zm20.41-9.314c4.122 0 8.38.198 12.84.66 1.486.133 2.5 1.388 2.5 2.841L38.09 36.65c-.135 1.19-1.149 2.18-2.365 2.312-3.784.462-7.637.66-11.556.66-3.92 0-7.772-.198-11.556-.66a2.63 2.63 0 0 1-2.366-2.312L8.896 23.835c-.203-1.387.878-2.708 2.365-2.84 4.393-.463 8.718-.66 12.84-.66zm-9.394 9.842c0 1.387.81 2.444 1.892 2.444 1.081 0 1.892-1.057 1.892-2.444s-.878-2.444-1.892-2.444c-1.014 0-1.892 1.057-1.892 2.444zm14.867 0c0 1.387.811 2.444 1.893 2.444 1.08 0 1.892-1.057 1.892-2.444s-.879-2.444-1.892-2.444c-1.014 0-1.893 1.057-1.893 2.444zm-1.832 3.956a.498.498 0 0 1 .135.33v1.19a.457.457 0 0 1-.473.462h-.136a.457.457 0 0 1-.473-.463v-.594h-5.473v.594a.457.457 0 0 1-.474.463h-.135a.457.457 0 0 1-.473-.463v-1.189c0-.132.068-.264.135-.33a.52.52 0 0 1 .338-.132h6.69a.53.53 0 0 1 .339.132z" fill="#E96170"/></svg>