<svg width="48" height="48" viewBox="0 0 48 48" fill="none" xmlns="http://www.w3.org/2000/svg"><path d="M39.983 33.479l.878-7.53c1.96.33 3.447 1.915 3.447 3.699 0 2.113-1.96 3.83-4.325 3.83zm-31.966 0c-2.365 0-4.325-1.718-4.325-3.831 0-1.85 1.487-3.369 3.447-3.7l.878 7.53z" fill="#6667AB"/><path fill-rule="evenodd" clip-rule="evenodd" d="M16.115 17.4h-2.868c-.358 0-.645-.287-.716-.645.143-6.093 4.802-11.254 10.895-11.541 6.595-.287 12.043 4.946 12.043 11.47v.07c0 .43-.287.646-.717.646h-2.867c-.43 0-.717-.215-.717-.645v.215c0-3.871-2.867-7.168-6.666-7.455-4.158-.287-7.67 3.082-7.67 7.168v.072c0 .43-.287.645-.717.645zm19.354 2.867a2.876 2.876 0 0 1 2.867 2.867v13.62a2.876 2.876 0 0 1-2.867 2.868H12.531a2.876 2.876 0 0 1-2.868-2.868v-13.62a2.876 2.876 0 0 1 2.868-2.867h22.938zm-21.503 9.076c0 1.492.872 2.629 2.035 2.629 1.163 0 2.035-1.137 2.035-2.63 0-1.491-.945-2.628-2.035-2.628-1.09 0-2.035 1.137-2.035 2.629zm15.991 0c0 1.492.872 2.629 2.035 2.629 1.163 0 2.036-1.137 2.036-2.63 0-1.491-.945-2.628-2.036-2.628-1.09 0-2.035 1.137-2.035 2.629z" fill="#6667AB"/></svg>