<svg width="49" height="48" viewBox="0 0 49 48" fill="none" xmlns="http://www.w3.org/2000/svg"><path d="M40.593 33.492l.878-7.53c1.96.33 3.447 1.916 3.447 3.699 0 2.114-1.96 3.831-4.325 3.831zm-31.965 0c-2.366 0-4.325-1.717-4.325-3.831 0-1.85 1.486-3.369 3.446-3.699l.879 7.53zm28.924-12.484c-4.46-.462-8.718-.66-12.84-.66-4.123 0-8.448.198-12.84.66-1.487.132-2.568 1.453-2.366 2.84l1.352 12.815a2.63 2.63 0 0 0 2.365 2.311c3.785.463 7.637.66 11.556.66 3.92 0 7.772-.197 11.556-.66 1.217-.132 2.23-1.123 2.366-2.311l1.351-12.815c0-1.453-1.013-2.708-2.5-2.84zM17.21 32.633c-1.08 0-1.892-1.057-1.892-2.444s.879-2.444 1.892-2.444c1.014 0 1.893 1.057 1.893 2.444s-.811 2.444-1.893 2.444zm14.868 0c-1.081 0-1.892-1.057-1.892-2.444s.878-2.444 1.892-2.444c1.014 0 1.892 1.057 1.892 2.444s-.81 2.444-1.892 2.444z" fill="#6667AB"/><path fill-rule="evenodd" clip-rule="evenodd" d="M15.012 19.22h2.56c.383 0 .64-.189.64-.567v-.063c0-3.597 3.135-6.562 6.846-6.31 3.392.253 5.951 3.155 5.951 6.562v-.19c0 .38.256.569.64.569h2.56c.384 0 .64-.19.64-.568v-.063c0-5.742-4.863-10.348-10.75-10.095-5.44.252-9.599 4.795-9.727 10.158.064.315.32.568.64.568z" fill="#6667AB"/></svg>