<svg width="48" height="48" viewBox="0 0 48 48" fill="none" xmlns="http://www.w3.org/2000/svg"><path d="M24.034 8.379c4.866 0 8.785 3.83 8.785 8.587v2.18c-2.906-.33-5.88-.463-8.785-.463-2.906 0-5.88.132-8.786.462v-2.18c0-4.689 3.92-8.586 8.786-8.586zm15.949 25.1l.878-7.53c1.96.33 3.447 1.915 3.447 3.699 0 2.113-1.96 3.83-4.325 3.83zm-31.966 0c-2.365 0-4.325-1.718-4.325-3.831 0-1.85 1.487-3.369 3.447-3.7l.878 7.53zm28.924-12.484a124.04 124.04 0 0 0-12.84-.66c-4.122 0-8.447.197-12.84.66-1.487.132-2.568 1.453-2.365 2.84l1.351 12.814a2.63 2.63 0 0 0 2.366 2.312c3.784.462 7.636.66 11.556.66 3.92 0 7.772-.198 11.556-.66 1.216-.132 2.23-1.123 2.365-2.312l1.352-12.814c0-1.453-1.014-2.708-2.5-2.84zM16.6 32.62c-1.081 0-1.892-1.057-1.892-2.444s.878-2.444 1.892-2.444c1.014 0 1.892 1.057 1.892 2.444s-.81 2.444-1.892 2.444zm14.867 0c-1.08 0-1.892-1.057-1.892-2.444s.879-2.444 1.893-2.444c1.013 0 1.892 1.057 1.892 2.444s-.811 2.444-1.892 2.444z" fill="#D8D6D2" fill-opacity=".5"/></svg>