<svg width="80" height="80" viewBox="0 0 80 80" fill="none" xmlns="http://www.w3.org/2000/svg"><circle cx="40" cy="40" r="35" stroke="#DDDBDA" stroke-width="10"/><circle cx="40" cy="40" r="40" fill="#6667AB"/><path fill-rule="evenodd" clip-rule="evenodd" d="M34.577 53.423l-12.692-12.77a1.207 1.207 0 0 1 0-1.691l1.692-1.693a1.207 1.207 0 0 1 1.692 0l9.539 9.616a.836.836 0 0 0 1.154 0l18.692-18.847a1.207 1.207 0 0 1 1.692 0l1.693 1.693c.461.461.461 1.23 0 1.692l-21.77 22a1.088 1.088 0 0 1-1.692 0z" fill="#fff"/></svg>